<svg width="350" height="450" viewBox="0 0 350 450" fill="none" xmlns="http://www.w3.org/2000/svg">
<defs>
    <filter id="glow" x="-50%" y="-50%" width="200%" height="200%">
        <feGaussianBlur stdDeviation="4" result="coloredBlur"/>
        <feMerge>
            <feMergeNode in="coloredBlur"/>
            <feMergeNode in="SourceGraphic"/>
        </feMerge>
    </filter>
</defs>
<path id="base_hand" fill-rule="evenodd" clip-rule="evenodd" d="M251.129 111.459C256.931 110.151 262.193 113.847 263.501 119.649C264.809 125.451 261.113 130.713 255.311 132.021L255.04 132.083L256.096 136.658L259.049 216.523L258.914 217.185C266.333 286.046 244.173 343.344 200.59 380.083C198.243 382.022 195.698 383.71 192.992 385.16L179.351 425.042C177.306 430.82 171.196 434.111 165.418 432.066C159.64 430.021 156.349 423.911 158.394 418.133L169.569 385.875C113.885 391.011 81.3971 346.516 78.4328 290.435C78.2118 286.376 77.0135 282.887 76.516 278.887C74.6214 263.67 78.332 249.723 78.4328 249.091C79.849 240.751 75.313 232.747 67.3094 229.623C66.1916 229.18 65.0315 228.872 63.8437 228.718C59.0763 228.102 54.8085 224.27 54.1287 219.539C53.284 213.794 57.2415 208.618 62.9868 207.773C65.0471 207.443 67.1497 207.618 69.1158 208.272L91.1354 180.208L93.7381 170.169C95.4243 163.633 91.1378 157.072 84.6019 155.386C78.066 153.7 71.5053 158.011 69.8191 164.547L66.7139 176.248L100.99 135.093L102.576 131.62C104.91 126.353 102.247 120.323 96.9803 117.989C91.7133 115.656 85.6835 118.318 83.3496 123.585L81.5121 127.568L121.328 79.5244L123.638 74.5755C126.173 69.1309 123.535 62.8291 118.09 60.2941C112.645 57.7591 106.343 60.3973 103.808 65.8419L101.218 71.306L145.454 19.5539L147.962 14.1952C150.768 8.20454 147.859 1.03156 141.868 -1.77428C135.878 -4.57999 128.705 -1.67139 125.9 4.31928L123.14 10.1983L169.58 45.4215L172.482 39.1102C175.568 32.6521 172.296 25.1018 165.838 22.0163C159.38 18.9308 151.83 22.2023 148.744 28.6604L145.54 35.1326L192.174 70.5283L195.122 64.1379C198.373 57.3429 194.851 49.6247 188.056 46.3734C181.261 43.1222 173.542 46.6445 170.291 53.4395L167.014 60.2941L215.11 96.914L218.059 90.5236C221.309 83.7286 217.787 76.0104 210.992 72.7591C204.197 69.5079 196.478 73.0302 193.227 79.8252L190.006 86.6798L236.463 112.187L237.086 111.196L251.129 111.459Z" fill="#D4AF37" stroke="#D4AF37" stroke-width="3"/>

<!-- Interactive Lines -->
<path id="heart_line" d="M96 220 C 175 198, 269 222, 269 222" stroke="transparent" stroke-width="4" stroke-linecap="round"/>
<path id="head_line" d="M90 248 C 175 258, 272 263, 272 263" stroke="transparent" stroke-width="4" stroke-linecap="round"/>
<path id="life_line" d="M110 252 C 85 325, 150 398, 150 398" stroke="transparent" stroke-width="4" stroke-linecap="round"/>
<path id="fate_line" d="M168 398 C 175 321, 185 220, 185 220" stroke="transparent" stroke-width="4" stroke-linecap="round"/>
</svg>